<svg width="183" height="23" viewBox="0 0 183 23" fill="none" xmlns="http://www.w3.org/2000/svg">
<path d="M40.376 22V2.02H42.752L55.334 15.547L55.253 2.02H59.06V22H56.711L44.129 8.473L44.183 22H40.376ZM69.6503 22.27C64.9793 22.27 61.8473 19.246 61.8473 14.71C61.8473 10.201 64.9793 7.177 69.6503 7.177C74.2943 7.177 77.4263 10.201 77.4263 14.71C77.4263 19.246 74.2943 22.27 69.6503 22.27ZM69.6503 19.111C72.0263 19.111 73.6193 17.356 73.6193 14.71C73.6193 12.064 72.0263 10.309 69.6503 10.309C67.2473 10.309 65.6543 12.064 65.6543 14.71C65.6543 17.356 67.2473 19.111 69.6503 19.111ZM83.7907 22L77.6347 7.447H81.6577L85.6267 17.815L89.5687 7.447H93.5917L87.4627 22H83.7907ZM101.582 22.27C96.911 22.27 93.779 19.246 93.779 14.71C93.779 10.201 96.911 7.177 101.582 7.177C106.226 7.177 109.358 10.201 109.358 14.71C109.358 19.246 106.226 22.27 101.582 22.27ZM101.582 19.111C103.958 19.111 105.551 17.356 105.551 14.71C105.551 12.064 103.958 10.309 101.582 10.309C99.179 10.309 97.586 12.064 97.586 14.71C97.586 17.356 99.179 19.111 101.582 19.111ZM118.227 19.111C119.064 19.111 119.901 18.976 120.738 18.625V21.595C119.631 22.054 118.335 22.27 117.039 22.27C114.366 22.27 112.557 20.434 112.557 17.68V10.444H110.154V7.447H112.557V3.181H116.229V7.447H120.522V10.444H116.229V16.924C116.229 18.247 117.039 19.111 118.227 19.111ZM136.23 14.494C136.23 15.007 136.176 15.601 136.122 16.033H125.592C125.862 18.085 126.942 19.381 129.075 19.381C130.56 19.381 131.775 18.706 132.639 17.653L135.474 19.084C134.178 21.028 131.883 22.27 129.129 22.27C124.674 22.27 121.704 19.3 121.704 14.818C121.704 10.228 124.593 7.177 128.967 7.177C133.314 7.177 136.23 10.093 136.23 14.494ZM128.967 10.066C127.023 10.066 125.889 11.335 125.592 13.549H132.369C132.099 11.335 130.938 10.066 128.967 10.066ZM148.604 22L143.42 15.871H142.178V22H138.506V0.939999H142.178V12.847H143.447L148.253 7.447H152.897L146.444 14.332L153.248 22H148.604ZM156.149 22.27C154.826 22.27 153.746 21.19 153.746 19.867C153.746 18.544 154.826 17.464 156.149 17.464C157.472 17.464 158.552 18.544 158.552 19.867C158.552 21.19 157.472 22.27 156.149 22.27ZM166.934 7.177C170.66 7.177 173.171 9.418 173.171 12.847V22H169.634L169.553 19.921C168.581 21.433 166.907 22.27 165.125 22.27C162.101 22.27 160.076 20.461 160.076 17.761C160.076 14.953 162.56 13.117 166.286 13.117C167.285 13.117 168.392 13.225 169.499 13.441V13.171C169.499 11.227 168.203 10.066 165.989 10.066C164.612 10.066 163.505 10.471 162.587 11.227L160.994 9.067C162.56 7.798 164.396 7.177 166.934 7.177ZM166.178 19.651C167.879 19.651 169.472 18.301 169.499 15.925C168.554 15.736 167.582 15.628 166.745 15.628C165.017 15.628 163.91 16.438 163.91 17.68C163.91 18.868 164.693 19.651 166.178 19.651ZM178.062 5.071C176.793 5.071 175.875 4.18 175.875 2.911C175.875 1.642 176.793 0.723999 178.062 0.723999C179.331 0.723999 180.222 1.642 180.222 2.911C180.222 4.18 179.331 5.071 178.062 5.071ZM176.226 22V7.447H179.898V22H176.226Z" fill="white"/>
<path d="M4.40175 21.9932L14.4851 7.6149L10.5417 2.00512C10.484 1.99361 10.1266 2.00511 9.17535 2.00512C7.96462 2.00513 7.08744 3.66233 6.8577 3.99037C5.35875 6.13072 2.1741 10.6286 0.942659 12.5342C-0.288787 14.4398 -0.181607 15.2787 0.51024 16.3489L4.40175 21.9932Z" fill="#DEDEDE"/>
<path d="M21.9114 2.01721L10.5303 2L17.5247 11.9277C19.2172 9.55652 22.6022 4.62437 23.293 3.46752C23.9651 2.34208 23.1318 1.99419 22.6022 2.01721H21.9114Z" fill="white"/>
<path d="M30.6034 2L20.5318 16.3832L24.4707 21.9949C24.5282 22.0064 24.8853 21.9949 25.8354 21.9949C27.0447 21.9949 27.9208 20.3371 28.1503 20.0089C29.6475 17.8679 32.8284 13.3684 34.0584 11.4622C35.2884 9.55593 35.1814 8.71676 34.4904 7.64622L30.6034 2Z" fill="#DEDEDE"/>
<path d="M13.1038 21.9769L24.4883 21.9941L17.4917 12.0658C15.7988 14.4371 12.4128 19.3696 11.7218 20.5265C11.0495 21.652 11.883 21.9999 12.4128 21.9769H13.1038Z" fill="white"/>
</svg>
